<svg class="icon" xmlns="http://www.w3.org/2000/svg" xmlns:xlink="http://www.w3.org/1999/xlink" xml:space="preserve" version="1.1" style="shape-rendering:geometricPrecision;text-rendering:geometricPrecision;image-rendering:optimizeQuality;" viewBox="0 0 8089 9107.5" x="0px" y="0px" fill-rule="evenodd" clip-rule="evenodd"><defs><style type="text/css">
   
    .fil0 {fill:black;fill-rule:nonzero}
   
  </style></defs><g><path class="fil0" d="M5252 3755c-192,23 -367,-114 -390,-306 -23,-192 113,-366 305,-390 192,-23 367,114 390,306 24,192 -113,366 -305,390z"/><path class="fil0" d="M4695 4466c-192,24 -367,-113 -390,-305 -23,-192 113,-367 305,-390 192,-23 367,113 390,305 24,192 -113,367 -305,390z"/><path class="fil0" d="M4138 5178c-192,23 -367,-114 -390,-305 -23,-192 113,-367 305,-390 192,-24 367,113 390,305 24,192 -113,366 -305,390z"/><path class="fil0" d="M4037 2803c-192,24 -367,-113 -390,-305 -24,-192 113,-366 305,-390 192,-23 367,114 390,305 23,192 -113,367 -305,390z"/><path class="fil0" d="M3480 3515c-192,23 -367,-113 -390,-305 -24,-192 113,-367 305,-390 192,-24 367,113 390,305 23,192 -113,367 -305,390z"/><path class="fil0" d="M2923 4227c-192,23 -367,-114 -390,-306 -24,-192 113,-366 305,-390 192,-23 367,114 390,306 23,192 -113,366 -305,390z"/><path class="fil0" d="M4041 1075c2621,-3182 7621,1239 2,6211 -7595,-4935 -2643,-9398 -2,-6211zm-1971 2976l2053 1607c102,80 250,62 330,-40l1607 -2053c80,-102 62,-250 -40,-330l-2053 -1607c-102,-80 -250,-62 -330,40l-1607 2053c-80,102 -62,250 40,330z"/></g><text x="0" y="7301" fill="#000000" font-size="5px" font-weight="bold" font-family="'Helvetica Neue', Helvetica, Arial-Unicode, Arial, Sans-serif">Created by ayu</text><text x="0" y="7306" fill="#000000" font-size="5px" font-weight="bold" font-family="'Helvetica Neue', Helvetica, Arial-Unicode, Arial, Sans-serif">from the Noun Project</text></svg>